<svg width="14" height="15" viewBox="0 0 14 15" fill="none" xmlns="http://www.w3.org/2000/svg">
<path d="M7 0.353638C10.866 0.353638 14 3.48843 14 7.3554C14 11.2223 10.866 14.3572 7 14.3572C3.134 14.3572 0 11.2223 0 7.3554C0 3.48843 3.134 0.353638 7 0.353638ZM7 1.4039C3.71391 1.4039 1.05 4.06848 1.05 7.3554C1.05 10.6423 3.71391 13.3069 7 13.3069C10.2861 13.3069 12.95 10.6423 12.95 7.3554C12.95 4.06848 10.2861 1.4039 7 1.4039ZM7 3.85452C7.28994 3.85452 7.525 4.08963 7.525 4.37965V6.83027H9.975C10.2649 6.83027 10.5 7.06538 10.5 7.3554C10.5 7.64541 10.2649 7.88053 9.975 7.88053H7.525V10.3311C7.525 10.6212 7.28994 10.8563 7 10.8563C6.71006 10.8563 6.475 10.6212 6.475 10.3311V7.88053H4.025C3.73505 7.88053 3.5 7.64541 3.5 7.3554C3.5 7.06538 3.73505 6.83027 4.025 6.83027H6.475V4.37965C6.475 4.08963 6.71006 3.85452 7 3.85452Z" fill="#5E6C81"/>
</svg>
