<svg width="16" height="17" viewBox="0 0 16 17" fill="none" xmlns="http://www.w3.org/2000/svg">
<path d="M8 0.818604C12.4182 0.818604 16 4.40122 16 8.82061C16 13.24 12.4182 16.8226 8 16.8226C3.58172 16.8226 0 13.24 0 8.82061C0 4.40122 3.58172 0.818604 8 0.818604ZM8 2.01891C4.24446 2.01891 1.2 5.06413 1.2 8.82061C1.2 12.5771 4.24446 15.6223 8 15.6223C11.7555 15.6223 14.8 12.5771 14.8 8.82061C14.8 5.06413 11.7555 2.01891 8 2.01891ZM8 4.81961C8.33136 4.81961 8.6 5.08831 8.6 5.41976V8.22046H11.4C11.7314 8.22046 12 8.48917 12 8.82061C12 9.15206 11.7314 9.42076 11.4 9.42076H8.6V12.2215C8.6 12.5529 8.33136 12.8216 8 12.8216C7.66864 12.8216 7.4 12.5529 7.4 12.2215V9.42076H4.6C4.26863 9.42076 4 9.15206 4 8.82061C4 8.48917 4.26863 8.22046 4.6 8.22046H7.4V5.41976C7.4 5.08831 7.66864 4.81961 8 4.81961Z" fill="white"/>
</svg>
