<svg width="16" height="17" viewBox="0 0 16 17" fill="none" xmlns="http://www.w3.org/2000/svg">
<path d="M8 0.0937958C12.4182 0.0937958 16 3.67642 16 8.09581C16 12.5152 12.4182 16.0978 8 16.0978C3.58172 16.0978 0 12.5152 0 8.09581C0 3.67642 3.58172 0.0937958 8 0.0937958ZM8 1.2941C4.24446 1.2941 1.2 4.33933 1.2 8.09581C1.2 11.8523 4.24446 14.8975 8 14.8975C11.7555 14.8975 14.8 11.8523 14.8 8.09581C14.8 4.33933 11.7555 1.2941 8 1.2941ZM8 4.0948C8.33136 4.0948 8.6 4.3635 8.6 4.69495V7.49566H11.4C11.7314 7.49566 12 7.76436 12 8.09581C12 8.42725 11.7314 8.69596 11.4 8.69596H8.6V11.4967C8.6 11.8281 8.33136 12.0968 8 12.0968C7.66864 12.0968 7.4 11.8281 7.4 11.4967V8.69596H4.6C4.26863 8.69596 4 8.42725 4 8.09581C4 7.76436 4.26863 7.49566 4.6 7.49566H7.4V4.69495C7.4 4.3635 7.66864 4.0948 8 4.0948Z" fill="white"/>
</svg>
