<svg width="16" height="17" viewBox="0 0 16 17" fill="none" xmlns="http://www.w3.org/2000/svg">
<path d="M8 0.65918C12.4182 0.65918 16 4.2418 16 8.66119C16 13.0805 12.4182 16.6632 8 16.6632C3.58172 16.6632 0 13.0805 0 8.66119C0 4.2418 3.58172 0.65918 8 0.65918ZM8 1.85948C4.24446 1.85948 1.2 4.90471 1.2 8.66119C1.2 12.4177 4.24446 15.4629 8 15.4629C11.7555 15.4629 14.8 12.4177 14.8 8.66119C14.8 4.90471 11.7555 1.85948 8 1.85948ZM8 4.66019C8.33136 4.66019 8.6 4.92888 8.6 5.26034V8.06104H11.4C11.7314 8.06104 12 8.32975 12 8.66119C12 8.99263 11.7314 9.26134 11.4 9.26134H8.6V12.062C8.6 12.3935 8.33136 12.6622 8 12.6622C7.66864 12.6622 7.4 12.3935 7.4 12.062V9.26134H4.6C4.26863 9.26134 4 8.99263 4 8.66119C4 8.32975 4.26863 8.06104 4.6 8.06104H7.4V5.26034C7.4 4.92888 7.66864 4.66019 8 4.66019Z" fill="white"/>
</svg>
