<svg width="16" height="17" viewBox="0 0 16 17" fill="none" xmlns="http://www.w3.org/2000/svg">
<path d="M8 0.666748C12.4182 0.666748 16 4.24937 16 8.66876C16 13.0881 12.4182 16.6708 8 16.6708C3.58172 16.6708 0 13.0881 0 8.66876C0 4.24937 3.58172 0.666748 8 0.666748ZM8 1.86705C4.24446 1.86705 1.2 4.91228 1.2 8.66876C1.2 12.4252 4.24446 15.4705 8 15.4705C11.7555 15.4705 14.8 12.4252 14.8 8.66876C14.8 4.91228 11.7555 1.86705 8 1.86705ZM8 4.66775C8.33136 4.66775 8.6 4.93645 8.6 5.2679V8.06861H11.4C11.7314 8.06861 12 8.33732 12 8.66876C12 9.0002 11.7314 9.26891 11.4 9.26891H8.6V12.0696C8.6 12.4011 8.33136 12.6698 8 12.6698C7.66864 12.6698 7.4 12.4011 7.4 12.0696V9.26891H4.6C4.26863 9.26891 4 9.0002 4 8.66876C4 8.33732 4.26863 8.06861 4.6 8.06861H7.4V5.2679C7.4 4.93645 7.66864 4.66775 8 4.66775Z" fill="white"/>
</svg>
