<svg width="16" height="17" viewBox="0 0 16 17" fill="none" xmlns="http://www.w3.org/2000/svg">
<path d="M8 0.826172C12.4182 0.826172 16 4.40879 16 8.82818C16 13.2475 12.4182 16.8302 8 16.8302C3.58172 16.8302 0 13.2475 0 8.82818C0 4.40879 3.58172 0.826172 8 0.826172ZM8 2.02647C4.24446 2.02647 1.2 5.0717 1.2 8.82818C1.2 12.5846 4.24446 15.6299 8 15.6299C11.7555 15.6299 14.8 12.5846 14.8 8.82818C14.8 5.0717 11.7555 2.02647 8 2.02647ZM8 4.82718C8.33136 4.82718 8.6 5.09588 8.6 5.42733V8.22803H11.4C11.7314 8.22803 12 8.49674 12 8.82818C12 9.15963 11.7314 9.42833 11.4 9.42833H8.6V12.229C8.6 12.5605 8.33136 12.8292 8 12.8292C7.66864 12.8292 7.4 12.5605 7.4 12.229V9.42833H4.6C4.26863 9.42833 4 9.15963 4 8.82818C4 8.49674 4.26863 8.22803 4.6 8.22803H7.4V5.42733C7.4 5.09588 7.66864 4.82718 8 4.82718Z" fill="white"/>
</svg>
