<svg width="16" height="17" viewBox="0 0 16 17" fill="none" xmlns="http://www.w3.org/2000/svg">
<path d="M8 0.674316C12.4182 0.674316 16 4.25694 16 8.67633C16 13.0957 12.4182 16.6783 8 16.6783C3.58172 16.6783 0 13.0957 0 8.67633C0 4.25694 3.58172 0.674316 8 0.674316ZM8 1.87462C4.24446 1.87462 1.2 4.91985 1.2 8.67633C1.2 12.4328 4.24446 15.478 8 15.478C11.7555 15.478 14.8 12.4328 14.8 8.67633C14.8 4.91985 11.7555 1.87462 8 1.87462ZM8 4.67532C8.33136 4.67532 8.6 4.94402 8.6 5.27547V8.07618H11.4C11.7314 8.07618 12 8.34488 12 8.67633C12 9.00777 11.7314 9.27648 11.4 9.27648H8.6V12.0772C8.6 12.4086 8.33136 12.6773 8 12.6773C7.66864 12.6773 7.4 12.4086 7.4 12.0772V9.27648H4.6C4.26863 9.27648 4 9.00777 4 8.67633C4 8.34488 4.26863 8.07618 4.6 8.07618H7.4V5.27547C7.4 4.94402 7.66864 4.67532 8 4.67532Z" fill="white"/>
</svg>
