<svg width="16" height="17" viewBox="0 0 16 17" fill="none" xmlns="http://www.w3.org/2000/svg">
<path d="M8 0.10083C12.4182 0.10083 16 3.68345 16 8.10284C16 12.5222 12.4182 16.1049 8 16.1049C3.58172 16.1049 0 12.5222 0 8.10284C0 3.68345 3.58172 0.10083 8 0.10083ZM8 1.30113C4.24446 1.30113 1.2 4.34636 1.2 8.10284C1.2 11.8593 4.24446 14.9045 8 14.9045C11.7555 14.9045 14.8 11.8593 14.8 8.10284C14.8 4.34636 11.7555 1.30113 8 1.30113ZM8 4.10184C8.33136 4.10184 8.6 4.37053 8.6 4.70199V7.50269H11.4C11.7314 7.50269 12 7.7714 12 8.10284C12 8.43428 11.7314 8.70299 11.4 8.70299H8.6V11.5037C8.6 11.8351 8.33136 12.1038 8 12.1038C7.66864 12.1038 7.4 11.8351 7.4 11.5037V8.70299H4.6C4.26863 8.70299 4 8.43428 4 8.10284C4 7.7714 4.26863 7.50269 4.6 7.50269H7.4V4.70199C7.4 4.37053 7.66864 4.10184 8 4.10184Z" fill="white"/>
</svg>
