<svg width="14" height="15" viewBox="0 0 14 15" fill="none" xmlns="http://www.w3.org/2000/svg">
<path d="M7 0.342529C10.866 0.342529 14 3.47732 14 7.34429C14 11.2112 10.866 14.346 7 14.346C3.134 14.346 0 11.2112 0 7.34429C0 3.47732 3.134 0.342529 7 0.342529ZM7 1.39279C3.71391 1.39279 1.05 4.05737 1.05 7.34429C1.05 10.6312 3.71391 13.2958 7 13.2958C10.2861 13.2958 12.95 10.6312 12.95 7.34429C12.95 4.05737 10.2861 1.39279 7 1.39279ZM7 3.84341C7.28994 3.84341 7.525 4.07852 7.525 4.36854V6.81916H9.975C10.2649 6.81916 10.5 7.05428 10.5 7.34429C10.5 7.6343 10.2649 7.86942 9.975 7.86942H7.525V10.32C7.525 10.6101 7.28994 10.8452 7 10.8452C6.71006 10.8452 6.475 10.6101 6.475 10.32V7.86942H4.025C3.73505 7.86942 3.5 7.6343 3.5 7.34429C3.5 7.05428 3.73505 6.81916 4.025 6.81916H6.475V4.36854C6.475 4.07852 6.71006 3.84341 7 3.84341Z" fill="#5E6C81"/>
</svg>
