<svg width="16" height="17" viewBox="0 0 16 17" fill="none" xmlns="http://www.w3.org/2000/svg">
<path d="M8 0.83374C12.4182 0.83374 16 4.41636 16 8.83575C16 13.2551 12.4182 16.8378 8 16.8378C3.58172 16.8378 0 13.2551 0 8.83575C0 4.41636 3.58172 0.83374 8 0.83374ZM8 2.03404C4.24446 2.03404 1.2 5.07927 1.2 8.83575C1.2 12.5922 4.24446 15.6375 8 15.6375C11.7555 15.6375 14.8 12.5922 14.8 8.83575C14.8 5.07927 11.7555 2.03404 8 2.03404ZM8 4.83475C8.33136 4.83475 8.6 5.10345 8.6 5.4349V8.2356H11.4C11.7314 8.2356 12 8.50431 12 8.83575C12 9.16719 11.7314 9.4359 11.4 9.4359H8.6V12.2366C8.6 12.568 8.33136 12.8368 8 12.8368C7.66864 12.8368 7.4 12.568 7.4 12.2366V9.4359H4.6C4.26863 9.4359 4 9.16719 4 8.83575C4 8.50431 4.26863 8.2356 4.6 8.2356H7.4V5.4349C7.4 5.10345 7.66864 4.83475 8 4.83475Z" fill="white"/>
</svg>
