<svg width="16" height="17" viewBox="0 0 16 17" fill="none" xmlns="http://www.w3.org/2000/svg">
<path d="M8 0.681885C12.4182 0.681885 16 4.26451 16 8.6839C16 13.1032 12.4182 16.6859 8 16.6859C3.58172 16.6859 0 13.1032 0 8.6839C0 4.26451 3.58172 0.681885 8 0.681885ZM8 1.88219C4.24446 1.88219 1.2 4.92742 1.2 8.6839C1.2 12.4404 4.24446 15.4856 8 15.4856C11.7555 15.4856 14.8 12.4404 14.8 8.6839C14.8 4.92742 11.7555 1.88219 8 1.88219ZM8 4.68289C8.33136 4.68289 8.6 4.95159 8.6 5.28304V8.08374H11.4C11.7314 8.08374 12 8.35245 12 8.6839C12 9.01534 11.7314 9.28405 11.4 9.28405H8.6V12.0848C8.6 12.4162 8.33136 12.6849 8 12.6849C7.66864 12.6849 7.4 12.4162 7.4 12.0848V9.28405H4.6C4.26863 9.28405 4 9.01534 4 8.6839C4 8.35245 4.26863 8.08374 4.6 8.08374H7.4V5.28304C7.4 4.95159 7.66864 4.68289 8 4.68289Z" fill="white"/>
</svg>
